<svg xmlns="http://www.w3.org/2000/svg" viewBox="0 0 20 20"><g fill="none" fill-rule="evenodd"><g fill-rule="nonzero"><path fill="#fff" d="M6.891 19.04a2.997 2.997 0 01-3.162-1.825l-.275-.665-.665-.275a3 3 0 01-1.825-3.162l.094-.713-.438-.571a2.997 2.997 0 010-3.651l.438-.571-.094-.713a2.997 2.997 0 011.825-3.162l.665-.275.275-.665A3 3 0 016.891.967l.713.094.571-.438a2.997 2.997 0 013.651 0l.571.438.713-.094a2.997 2.997 0 013.162 1.825l.275.665.665.275a3 3 0 011.825 3.162l-.094.713.438.571a2.997 2.997 0 010 3.651l-.438.571.094.713a2.997 2.997 0 01-1.825 3.162l-.665.275-.275.665a3 3 0 01-3.162 1.825l-.713-.094-.571.438a2.997 2.997 0 01-3.651 0l-.571-.438-.713.094"/><path fill="#1f6aed" d="M7.754 16.905a.999.999 0 01.739.198l.899.69a1 1 0 001.217 0l.899-.69a.999.999 0 01.739-.198l1.124.148a1 1 0 001.054-.608l.433-1.047a.996.996 0 01.541-.541l1.047-.433a.999.999 0 00.608-1.054l-.148-1.124a.999.999 0 01.198-.739l.69-.899a1 1 0 000-1.217l-.69-.899a.999.999 0 01-.198-.739l.148-1.124a1 1 0 00-.608-1.054l-1.047-.433a.996.996 0 01-.541-.541l-.433-1.047a.999.999 0 00-1.054-.608l-1.124.148a.999.999 0 01-.739-.198l-.899-.69a1 1 0 00-1.217 0l-.899.69a.999.999 0 01-.739.198L6.63 2.946a1 1 0 00-1.054.608l-.433 1.047a.996.996 0 01-.541.541l-1.047.433a.999.999 0 00-.608 1.054l.148 1.124a.999.999 0 01-.198.739l-.69.899a1 1 0 000 1.217l.69.899c.161.21.233.476.198.739l-.148 1.124a1 1 0 00.608 1.054l1.047.433c.245.101.44.296.541.541l.433 1.047a.999.999 0 001.054.608l1.124-.148"/></g><path stroke="#fff" stroke-linecap="round" stroke-linejoin="round" stroke-width="2" d="M7 10.1l2.296 2.4L13 8"/></g></svg>